{
  "accessors": [
    {
      "bufferView": 2,
      "componentType": 5126,
      "count": 11658,
      "max": [
        0.36273500323295593,
        0.27442198991775513,
        0.31257998943328857
      ],
      "min": [
        -0.39033499360084534,
        -0.29682499170303345,
        -0.35294300317764282
      ],
      "type": "VEC3"
    },
    {
      "bufferView": 2,
      "byteOffset": 139896,
      "componentType": 5126,
      "count": 11658,
      "max": [
        0.99985396862030029,
        0.99997758865356445,
        0.99998867511749268
      ],
      "min": [
        -0.9999852180480957,
        -0.99755585193634033,
        -0.99602031707763672
      ],
      "type": "VEC3"
    },
    {
      "bufferView": 1,
      "componentType": 5126,
      "count": 11658,
      "max": [
        0.99804002046585083,
        0.90140002965927124
      ],
      "min": [
        0.0019499999471008778,
        0.0019499999471008778
      ],
      "type": "VEC2"
    },
    {
      "bufferView": 3,
      "componentType": 5126,
      "count": 11658,
      "max": [
        0.99919259548187256,
        0.9981045126914978,
        0.99978071451187134,
        1
      ],
      "min": [
        -0.99935907125473022,
        -0.99905204772949219,
        -0.99982160329818726,
        1
      ],
      "type": "VEC4"
    },
    {
      "bufferView": 0,
      "componentType": 5125,
      "count": 66588,
      "max": [
        11657
      ],
      "min": [
        0
      ],
      "type": "SCALAR"
    },
    {
      "bufferView": 2,
      "byteOffset": 279792,
      "componentType": 5126,
      "count": 25025,
      "max": [
        0.23686599731445312,
        0.22211199998855591,
        0.28355398774147034
      ],
      "min": [
        -0.23682799935340881,
        -0.25158300995826721,
        -0.19013999402523041
      ],
      "type": "VEC3"
    },
    {
      "bufferView": 2,
      "byteOffset": 580092,
      "componentType": 5126,
      "count": 25025,
      "max": [
        1,
        1,
        1
      ],
      "min": [
        -1,
        -1,
        -1
      ],
      "type": "VEC3"
    },
    {
      "bufferView": 1,
      "byteOffset": 93264,
      "componentType": 5126,
      "count": 25025,
      "max": [
        0.99088001251220703,
        0.74316000938415527
      ],
      "min": [
        0.0091099999845027924,
        0.006829999852925539
      ],
      "type": "VEC2"
    },
    {
      "bufferView": 3,
      "byteOffset": 186528,
      "componentType": 5126,
      "count": 25025,
      "max": [
        1,
        0.70710045099258423,
        1,
        1
      ],
      "min": [
        -1,
        -0.70710104703903198,
        -1,
        1
      ],
      "type": "VEC4"
    },
    {
      "bufferView": 0,
      "byteOffset": 266352,
      "componentType": 5125,
      "count": 147456,
      "max": [
        25024
      ],
      "min": [
        0
      ],
      "type": "SCALAR"
    },
    {
      "bufferView": 2,
      "byteOffset": 880392,
      "componentType": 5126,
      "count": 65532,
      "max": [
        0.23090757429599762,
        0.21501672267913818,
        0.2796332836151123
      ],
      "min": [
        -0.23019525408744812,
        -0.19455486536026001,
        -0.18030303716659546
      ],
      "type": "VEC3"
    },
    {
      "bufferView": 2,
      "byteOffset": 1666776,
      "componentType": 5126,
      "count": 65532,
      "max": [
        0.99997663497924805,
        0.99985253810882568,
        0.99990981817245483
      ],
      "min": [
        -0.99999183416366577,
        -0.99973255395889282,
        -0.99992585182189941
      ],
      "type": "VEC3"
    },
    {
      "bufferView": 1,
      "byteOffset": 293464,
      "componentType": 5126,
      "count": 65532,
      "max": [
        1,
        0.98094111680984497
      ],
      "min": [
        0,
        0.041694313287734985
      ],
      "type": "VEC2"
    },
    {
      "bufferView": 3,
      "byteOffset": 586928,
      "componentType": 5126,
      "count": 65532,
      "max": [
        0.99996548891067505,
        0.99998927116394043,
        0.99988526105880737,
        -1
      ],
      "min": [
        -0.99996399879455566,
        -0.99999004602432251,
        -0.99988383054733276,
        -1
      ],
      "type": "VEC4"
    },
    {
      "bufferView": 0,
      "byteOffset": 856176,
      "componentType": 5125,
      "count": 98298,
      "max": [
        65531
      ],
      "min": [
        0
      ],
      "type": "SCALAR"
    },
    {
      "bufferView": 2,
      "byteOffset": 2453160,
      "componentType": 5126,
      "count": 56964,
      "max": [
        0.23039701581001282,
        0.067964650690555573,
        0.27739140391349792
      ],
      "min": [
        -0.22891861200332642,
        -0.24579501152038574,
        -0.18050688505172729
      ],
      "type": "VEC3"
    },
    {
      "bufferView": 2,
      "byteOffset": 3136728,
      "componentType": 5126,
      "count": 56964,
      "max": [
        0.99991440773010254,
        0.99989610910415649,
        0.9995574951171875
      ],
      "min": [
        -0.99997431039810181,
        -0.99996370077133179,
        -0.99921280145645142
      ],
      "type": "VEC3"
    },
    {
      "bufferView": 1,
      "byteOffset": 817720,
      "componentType": 5126,
      "count": 56964,
      "max": [
        1,
        0.98094111680984497
      ],
      "min": [
        0,
        0.041694313287734985
      ],
      "type": "VEC2"
    },
    {
      "bufferView": 3,
      "byteOffset": 1635440,
      "componentType": 5126,
      "count": 56964,
      "max": [
        0.99983304738998413,
        0.99994564056396484,
        0.99986755847930908,
        -1
      ],
      "min": [
        -0.99983298778533936,
        -0.99994379281997681,
        -0.99986773729324341,
        -1
      ],
      "type": "VEC4"
    },
    {
      "bufferView": 0,
      "byteOffset": 1249368,
      "componentType": 5125,
      "count": 85446,
      "max": [
        56963
      ],
      "min": [
        0
      ],
      "type": "SCALAR"
    }
  ],
  "asset": {
    "generator": "Sketchfab (OSG glTF plugin)",
    "version": "2.0"
  },
  "bufferViews": [
    {
      "buffer": 0,
      "byteLength": 1591152,
      "byteOffset": 0,
      "name": "ScalarBufferView",
      "target": 34963
    },
    {
      "buffer": 0,
      "byteLength": 1273432,
      "byteOffset": 1591152,
      "byteStride": 8,
      "name": "Vec3BufferView",
      "target": 34962
    },
    {
      "buffer": 0,
      "byteLength": 3820296,
      "byteOffset": 2864584,
      "byteStride": 12,
      "name": "Vec4BufferView",
      "target": 34962
    },
    {
      "buffer": 0,
      "byteLength": 2546864,
      "byteOffset": 6684880,
      "byteStride": 16,
      "name": "MatrixBufferView",
      "target": 34962
    }
  ],
  "buffers": [
    {
      "byteLength": 9231744,
      "uri": "fx.bin"
    }
  ],
  "images": [
    {
      "uri": "fxtex/Material.003_baseColor.png"
    },
    {
      "uri": "fxtex/Material.003_metallicRoughness.png"
    },
    {
      "uri": "fxtex/Material.003_normal.png"
    },
    {
      "uri": "fxtex/Material.002_baseColor.png"
    },
    {
      "uri": "fxtex/Material.001_metallicRoughness.png"
    },
    {
      "uri": "fxtex/Material.001_normal.png"
    },
    {
      "uri": "fxtex/Material.001_baseColor.png"
    }
  ],
  "materials": [
    {
      "doubleSided": true,
      "emissiveFactor": [
        0,
        0,
        0
      ],
      "name": "Material.001",
      "normalTexture": {
        "index": 5,
        "scale": 0.67244664629999995,
        "texCoord": 0
      },
      "occlusionTexture": {
        "index": 4,
        "strength": 1,
        "texCoord": 0
      },
      "pbrMetallicRoughness": {
        "baseColorFactor": [
          0.70293445119999998,
          0.70293445119999998,
          0.70293445119999998,
          1
        ],
        "baseColorTexture": {
          "index": 6,
          "texCoord": 0
        },
        "metallicFactor": 0.61147103660000002,
        "metallicRoughnessTexture": {
          "index": 4,
          "texCoord": 0
        },
        "roughnessFactor": 0.34317835369999999
      }
    },
    {
      "alphaCutoff": 0.245617378,
      "alphaMode": "MASK",
      "doubleSided": true,
      "name": "Material.003",
      "normalTexture": {
        "index": 2,
        "scale": 0.16634908540000001,
        "texCoord": 0
      },
      "occlusionTexture": {
        "index": 1,
        "strength": 0.080983231700000005,
        "texCoord": 0
      },
      "pbrMetallicRoughness": {
        "baseColorFactor": [
          0.0018902690492163877,
          0,
          0.0001225497416539968,
          1
        ],
        "baseColorTexture": {
          "index": 0,
          "texCoord": 0
        },
        "metallicFactor": 0.37976371949999999,
        "metallicRoughnessTexture": {
          "index": 1,
          "texCoord": 0
        },
        "roughnessFactor": 1
      }
    },
    {
      "alphaCutoff": 0.5,
      "alphaMode": "BLEND",
      "doubleSided": false,
      "emissiveFactor": [
        1,
        1,
        0.46827869299999997
      ],
      "name": "Material.002",
      "pbrMetallicRoughness": {
        "baseColorFactor": [
          0,
          0,
          0,
          0.63243140239999995
        ],
        "baseColorTexture": {
          "index": 3,
          "texCoord": 0
        },
        "metallicFactor": 0,
        "roughnessFactor": 0.58098323169999999
      }
    }
  ],
  "meshes": [
    {
      "name": "rock",
      "primitives": [
        {
          "attributes": {
            "NORMAL": 1,
            "POSITION": 0,
            "TANGENT": 3,
            "TEXCOORD_0": 2
          },
          "indices": 4,
          "material": 0,
          "mode": 4
        }
      ]
    },
    {
      "name": "sphere",
      "primitives": [
        {
          "attributes": {
            "NORMAL": 6,
            "POSITION": 5,
            "TANGENT": 8,
            "TEXCOORD_0": 7
          },
          "indices": 9,
          "material": 1,
          "mode": 4
        }
      ]
    },
    {
      "name": "inside",
      "primitives": [
        {
          "attributes": {
            "NORMAL": 11,
            "POSITION": 10,
            "TANGENT": 13,
            "TEXCOORD_0": 12
          },
          "indices": 14,
          "material": 2,
          "mode": 4
        },
        {
          "attributes": {
            "NORMAL": 16,
            "POSITION": 15,
            "TANGENT": 18,
            "TEXCOORD_0": 17
          },
          "indices": 19,
          "material": 2,
          "mode": 4
        }
      ]
    }
  ],
  "nodes": [
    {
      "children": [
        1
      ],
      "name": "RootNode (gltf orientation matrix)",
      "rotation": [
        -0.70710678118654746,
        -0,
        -0,
        0.70710678118654757
      ]
    },
    {
      "children": [
        2
      ],
      "name": "RootNode (model correction matrix)"
    },
    {
      "children": [
        3
      ],
      "matrix": [
        1,
        0,
        0,
        0,
        0,
        0,
        1,
        0,
        0,
        -1,
        0,
        0,
        0,
        0,
        0,
        1
      ],
      "name": "795101de09634d3a8e304dc160635ca9.fbx"
    },
    {
      "children": [
        4,
        6,
        8
      ],
      "name": "RootNode"
    },
    {
      "children": [
        5
      ],
      "matrix": [
        100,
        0,
        0,
        0,
        0,
        99.999999999998664,
        1.6292067073209114e-05,
        0,
        0,
        -1.6292067073209114e-05,
        99.999999999998664,
        0,
        0,
        0,
        0,
        1
      ],
      "name": "rock"
    },
    {
      "mesh": 0,
      "name": "rock"
    },
    {
      "children": [
        7
      ],
      "matrix": [
        100,
        0,
        0,
        0,
        0,
        99.999999999998664,
        1.6292067073209114e-05,
        0,
        0,
        -1.6292067073209114e-05,
        99.999999999998664,
        0,
        0,
        0,
        0,
        1
      ],
      "name": "sphere"
    },
    {
      "mesh": 1,
      "name": "sphere"
    },
    {
      "children": [
        9
      ],
      "matrix": [
        100,
        0,
        0,
        0,
        0,
        99.999999999998664,
        1.6292067073209114e-05,
        0,
        0,
        -1.6292067073209114e-05,
        99.999999999998664,
        0,
        0,
        0,
        0,
        1
      ],
      "name": "inside"
    },
    {
      "mesh": 2,
      "name": "inside"
    }
  ],
  "samplers": [
    {
      "magFilter": 9729,
      "minFilter": 9987,
      "wrapS": 10497,
      "wrapT": 10497
    }
  ],
  "scene": 0,
  "scenes": [
    {
      "name": "OSG_Scene",
      "nodes": [
        0
      ]
    }
  ],
  "textures": [
    {
      "sampler": 0,
      "source": 0
    },
    {
      "sampler": 0,
      "source": 1
    },
    {
      "sampler": 0,
      "source": 2
    },
    {
      "sampler": 0,
      "source": 3
    },
    {
      "sampler": 0,
      "source": 4
    },
    {
      "sampler": 0,
      "source": 5
    },
    {
      "sampler": 0,
      "source": 6
    }
  ]
}

