{"asset":{"version":"2.0","generator":"Babylon2Gltf2017","copyright":"2017 (c) BabylonJS"},"scene":0,"scenes":[{"nodes":[9]}],"nodes":[{"mesh":0,"translation":[0.0,49.3310471,-2.15632849E-06],"rotation":[0.0,0.0,0.0,-1.0],"scale":[1.0,1.0,1.0],"name":"Circle001"},{"mesh":1,"translation":[0.0,239.074219,-1.04502669E-05],"rotation":[0.0,0.0,0.0,-1.0],"scale":[1.0,1.0,1.0],"name":"Rectangle001"},{"mesh":2,"translation":[0.0,33.17553,-1.908091E-05],"rotation":[0.0,0.0,0.0,-1.0],"scale":[1.0,1.0,1.0],"name":"Rectangle002"},{"mesh":3,"translation":[0.0,24.7466679,-1.08171116E-06],"rotation":[0.0,0.0,0.0,-1.0],"scale":[1.0,1.0,1.0],"name":"ChamferBox001"},{"mesh":4,"translation":[0.0,247.841064,-1.202223E-05],"rotation":[0.0,0.0,0.0,-1.0],"scale":[1.0,1.0,1.0],"name":"ChamferBox002"},{"mesh":5,"translation":[0.0,284.058228,1.36089639E-05],"rotation":[0.0,0.0,0.0,-1.0],"scale":[1.0,1.0,1.0],"name":"ChamferBox003"},{"mesh":6,"translation":[0.0,284.479919,1.498522E-05],"rotation":[0.0,0.0,0.0,-1.0],"scale":[1.0,1.0,1.0],"name":"ChamferBox004"},{"mesh":7,"translation":[0.0611534119,270.801758,-85.49787],"rotation":[0.0,0.0,0.0,-1.0],"scale":[1.0,1.0,1.0],"name":"ChamferBox005"},{"mesh":8,"translation":[0.134290457,337.411438,-0.392355442],"rotation":[0.0,0.0,0.0,-1.0],"scale":[1.2322,1.2322,1.2322],"name":"Torus Knot001"},{"children":[0,1,2,3,4,5,6,7,8],"translation":[0.0,0.0,0.0],"rotation":[0.0,1.0,0.0,-4.371139E-08],"scale":[1.0,1.0,-1.0],"name":"root"}],"meshes":[{"primitives":[{"attributes":{"POSITION":1,"NORMAL":2,"TEXCOORD_0":3},"indices":0,"mode":4,"material":0}],"name":"Circle001"},{"primitives":[{"attributes":{"POSITION":5,"NORMAL":6,"TEXCOORD_0":7},"indices":4,"mode":4,"material":0}],"name":"Rectangle001"},{"primitives":[{"attributes":{"POSITION":9,"NORMAL":10,"TEXCOORD_0":11},"indices":8,"mode":4,"material":0}],"name":"Rectangle002"},{"primitives":[{"attributes":{"POSITION":13,"NORMAL":14,"TEXCOORD_0":15},"indices":12,"mode":4,"material":0}],"name":"ChamferBox001"},{"primitives":[{"attributes":{"POSITION":17,"NORMAL":18,"TEXCOORD_0":19},"indices":16,"mode":4,"material":0}],"name":"ChamferBox002"},{"primitives":[{"attributes":{"POSITION":21,"NORMAL":22,"TEXCOORD_0":23},"indices":20,"mode":4,"material":0}],"name":"ChamferBox003"},{"primitives":[{"attributes":{"POSITION":25,"NORMAL":26,"TEXCOORD_0":27},"indices":24,"mode":4,"material":1}],"name":"ChamferBox004"},{"primitives":[{"attributes":{"POSITION":29,"NORMAL":30,"TEXCOORD_0":31},"indices":28,"mode":4,"material":2}],"name":"ChamferBox005"},{"primitives":[{"attributes":{"POSITION":33,"NORMAL":34,"TEXCOORD_0":35},"indices":32,"mode":4,"material":3}],"name":"Torus Knot001"}],"accessors":[{"bufferView":0,"componentType":5123,"count":23328,"type":"SCALAR","name":"accessorIndices"},{"bufferView":1,"componentType":5126,"count":23328,"max":[48.8480225,171.875,48.83943],"min":[-48.8492546,0.0,-48.83937],"type":"VEC3","name":"accessorPositions"},{"bufferView":1,"byteOffset":279936,"componentType":5126,"count":23328,"type":"VEC3","name":"accessorNormals"},{"bufferView":2,"componentType":5126,"count":23328,"type":"VEC2","name":"accessorUVs"},{"bufferView":0,"byteOffset":46656,"componentType":5123,"count":9216,"type":"SCALAR","name":"accessorIndices"},{"bufferView":1,"byteOffset":559872,"componentType":5126,"count":9216,"max":[72.02736,8.2601,72.02736],"min":[-72.02736,-17.8056564,-72.02736],"type":"VEC3","name":"accessorPositions"},{"bufferView":1,"byteOffset":670464,"componentType":5126,"count":9216,"type":"VEC3","name":"accessorNormals"},{"bufferView":2,"byteOffset":186624,"componentType":5126,"count":9216,"type":"VEC2","name":"accessorUVs"},{"bufferView":0,"byteOffset":65088,"componentType":5123,"count":6912,"type":"SCALAR","name":"accessorIndices"},{"bufferView":1,"byteOffset":781056,"componentType":5126,"count":6912,"max":[72.02736,17.89306,72.02736],"min":[-72.02736,-8.176084,-72.02736],"type":"VEC3","name":"accessorPositions"},{"bufferView":1,"byteOffset":864000,"componentType":5126,"count":6912,"type":"VEC3","name":"accessorNormals"},{"bufferView":2,"byteOffset":260352,"componentType":5126,"count":6912,"type":"VEC2","name":"accessorUVs"},{"bufferView":0,"byteOffset":78912,"componentType":5123,"count":5616,"type":"SCALAR","name":"accessorIndices"},{"bufferView":1,"byteOffset":946944,"componentType":5126,"count":5616,"max":[81.40561,0.0,81.40561],"min":[-81.40561,-24.0,-81.40561],"type":"VEC3","name":"accessorPositions"},{"bufferView":1,"byteOffset":1014336,"componentType":5126,"count":5616,"type":"VEC3","name":"accessorNormals"},{"bufferView":2,"byteOffset":315648,"componentType":5126,"count":5616,"type":"VEC2","name":"accessorUVs"},{"bufferView":0,"byteOffset":90144,"componentType":5123,"count":5616,"type":"SCALAR","name":"accessorIndices"},{"bufferView":1,"byteOffset":1081728,"componentType":5126,"count":5616,"max":[81.13939,24.0,81.13939],"min":[-81.13939,0.0,-81.13939],"type":"VEC3","name":"accessorPositions"},{"bufferView":1,"byteOffset":1149120,"componentType":5126,"count":5616,"type":"VEC3","name":"accessorNormals"},{"bufferView":2,"byteOffset":360576,"componentType":5126,"count":5616,"type":"VEC2","name":"accessorUVs"},{"bufferView":0,"byteOffset":101376,"componentType":5123,"count":4176,"type":"SCALAR","name":"accessorIndices"},{"bufferView":1,"byteOffset":1216512,"componentType":5126,"count":4176,"max":[85.0,0.0,85.0],"min":[-85.0,-12.0,-85.0],"type":"VEC3","name":"accessorPositions"},{"bufferView":1,"byteOffset":1266624,"componentType":5126,"count":4176,"type":"VEC3","name":"accessorNormals"},{"bufferView":2,"byteOffset":405504,"componentType":5126,"count":4176,"type":"VEC2","name":"accessorUVs"},{"bufferView":0,"byteOffset":109728,"componentType":5123,"count":5808,"type":"SCALAR","name":"accessorIndices"},{"bufferView":1,"byteOffset":1316736,"componentType":5126,"count":5808,"max":[82.0,162.0,82.0],"min":[-82.0,0.03675294,-82.0],"type":"VEC3","name":"accessorPositions"},{"bufferView":1,"byteOffset":1386432,"componentType":5126,"count":5808,"type":"VEC3","name":"accessorNormals"},{"bufferView":2,"byteOffset":438912,"componentType":5126,"count":5808,"type":"VEC2","name":"accessorUVs"},{"bufferView":0,"byteOffset":121344,"componentType":5123,"count":1392,"type":"SCALAR","name":"accessorIndices"},{"bufferView":1,"byteOffset":1456128,"componentType":5126,"count":1392,"max":[40.0,8.0,1.22271979E-06],"min":[-40.0,-8.0,-1.00000119],"type":"VEC3","name":"accessorPositions"},{"bufferView":1,"byteOffset":1472832,"componentType":5126,"count":1392,"type":"VEC3","name":"accessorNormals"},{"bufferView":2,"byteOffset":485376,"componentType":5126,"count":1392,"type":"VEC2","name":"accessorUVs"},{"bufferView":0,"byteOffset":124128,"componentType":5123,"count":8640,"type":"SCALAR","name":"accessorIndices"},{"bufferView":1,"byteOffset":1489536,"componentType":5126,"count":8640,"max":[45.5688553,41.6308136,56.3077469],"min":[-60.50994,-41.6301041,-56.3083229],"type":"VEC3","name":"accessorPositions"},{"bufferView":1,"byteOffset":1593216,"componentType":5126,"count":8640,"type":"VEC3","name":"accessorNormals"},{"bufferView":2,"byteOffset":496512,"componentType":5126,"count":8640,"type":"VEC2","name":"accessorUVs"}],"bufferViews":[{"buffer":0,"byteLength":141408,"name":"bufferViewScalar"},{"buffer":0,"byteOffset":141408,"byteLength":1696896,"byteStride":12,"name":"bufferViewFloatVec3"},{"buffer":0,"byteOffset":1838304,"byteLength":565632,"byteStride":8,"name":"bufferViewFloatVec2"}],"buffers":[{"uri":"gltftest.bin","byteLength":2403936}],"materials":[{"pbrMetallicRoughness":{"baseColorFactor":[1.0,1.0,1.0,1.0],"baseColorTexture":{"index":1},"metallicFactor":0.88,"roughnessFactor":0.2},"normalTexture":{"index":0},"emissiveFactor":[0.0,0.0,0.0],"name":"PBR metal"},{"pbrMetallicRoughness":{"baseColorFactor":[0.0,0.0,0.0,0.0],"metallicFactor":0.0,"roughnessFactor":0.0},"emissiveFactor":[0.0,0.0,0.0],"alphaMode":"BLEND","name":"PBR glass"},{"pbrMetallicRoughness":{"baseColorFactor":[1.0,1.0,1.0,1.0],"baseColorTexture":{"index":2},"metallicFactor":0.4,"roughnessFactor":0.5},"emissiveFactor":[0.0,0.0,0.0],"name":"PBR sign"},{"pbrMetallicRoughness":{"baseColorFactor":[0.0,0.065882355,0.7,0.9],"metallicFactor":0.0,"roughnessFactor":0.599999964},"emissiveFactor":[0.0,0.0,0.0],"alphaMode":"BLEND","name":"PBR torus"}],"textures":[{"sampler":0,"source":0,"name":"noise.png"},{"sampler":1,"source":1,"name":"PBR_metal_baseColor.png"},{"sampler":2,"source":2,"name":"PBR_sign_baseColor.png"}],"images":[{"uri":"noise.png"},{"uri":"PBR_metal_baseColor.png"},{"uri":"PBR_sign_baseColor.png"}],"samplers":[{"magFilter":9729,"minFilter":9987,"wrapS":10497,"wrapT":10497},{"magFilter":9729,"minFilter":9987,"wrapS":10497,"wrapT":10497},{"magFilter":9729,"minFilter":9987,"wrapS":10497,"wrapT":10497}]}