{"asset":{"version":"2.0","generator":"Babylon2Gltf2017","copyright":"2017 (c) BabylonJS"},"scene":0,"scenes":[{"nodes":[9]}],"nodes":[{"mesh":0,"translation":[0.0,49.3310471,-2.15632849E-06],"rotation":[0.0,0.0,0.0,-1.0],"scale":[1.0,1.0,1.0],"name":"Circle001"},{"mesh":1,"translation":[0.0,559.7215,-2.44662042E-05],"rotation":[0.0,0.0,0.0,-1.0],"scale":[1.0,1.0,1.0],"name":"Rectangle001"},{"mesh":2,"translation":[0.0,33.17553,-1.908091E-05],"rotation":[0.0,0.0,0.0,-1.0],"scale":[1.0,1.0,1.0],"name":"Rectangle002"},{"mesh":3,"translation":[0.0,24.7466679,-1.08171116E-06],"rotation":[0.0,0.0,0.0,-1.0],"scale":[1.0,1.0,1.0],"name":"ChamferBox001"},{"mesh":4,"translation":[0.0,568.488342,-2.603817E-05],"rotation":[0.0,0.0,0.0,-1.0],"scale":[1.0,1.0,1.0],"name":"ChamferBox002"},{"mesh":5,"translation":[0.0,604.7055,-4.069753E-07],"rotation":[0.0,0.0,0.0,-1.0],"scale":[1.0,1.0,1.0],"name":"ChamferBox003"},{"mesh":6,"translation":[0.0,605.1272,9.69282E-07],"rotation":[0.0,0.0,0.0,-1.0],"scale":[1.0,1.0,1.0],"name":"ChamferBox004"},{"mesh":7,"translation":[0.0611534119,591.449036,-85.49789],"rotation":[0.0,0.0,0.0,-1.0],"scale":[1.0,1.0,1.0],"name":"ChamferBox005"},{"mesh":8,"translation":[0.134290457,658.0587,-0.392369419],"rotation":[0.0,0.0,0.0,-1.0],"scale":[1.2322,1.2322,1.2322],"name":"Torus Knot001"},{"children":[0,1,2,3,4,5,6,7,8],"translation":[0.0,0.0,0.0],"rotation":[0.0,1.0,0.0,-4.371139E-08],"scale":[1.0,1.0,-1.0],"name":"root"}],"meshes":[{"primitives":[{"attributes":{"POSITION":1,"NORMAL":2,"TEXCOORD_0":3},"indices":0,"mode":4,"material":0}],"name":"Circle001"},{"primitives":[{"attributes":{"POSITION":5,"NORMAL":6,"TEXCOORD_0":7},"indices":4,"mode":4,"material":0}],"name":"Rectangle001"},{"primitives":[{"attributes":{"POSITION":9,"NORMAL":10,"TEXCOORD_0":11},"indices":8,"mode":4,"material":0}],"name":"Rectangle002"},{"primitives":[{"attributes":{"POSITION":13,"NORMAL":14,"TEXCOORD_0":15},"indices":12,"mode":4,"material":0}],"name":"ChamferBox001"},{"primitives":[{"attributes":{"POSITION":17,"NORMAL":18,"TEXCOORD_0":19},"indices":16,"mode":4,"material":0}],"name":"ChamferBox002"},{"primitives":[{"attributes":{"POSITION":21,"NORMAL":22,"TEXCOORD_0":23},"indices":20,"mode":4,"material":0}],"name":"ChamferBox003"},{"primitives":[{"attributes":{"POSITION":25,"NORMAL":26,"TEXCOORD_0":27},"indices":24,"mode":4,"material":1}],"name":"ChamferBox004"},{"primitives":[{"attributes":{"POSITION":29,"NORMAL":30,"TEXCOORD_0":31},"indices":28,"mode":4,"material":2}],"name":"ChamferBox005"},{"primitives":[{"attributes":{"POSITION":33,"NORMAL":34,"TEXCOORD_0":35},"indices":32,"mode":4,"material":3}],"name":"Torus Knot001"}],"accessors":[{"bufferView":0,"componentType":5123,"count":63936,"type":"SCALAR","name":"accessorIndices"},{"bufferView":1,"componentType":5126,"count":63936,"max":[48.8480225,500.0,48.83943],"min":[-48.8492546,0.0,-48.83937],"type":"VEC3","name":"accessorPositions"},{"bufferView":1,"byteOffset":767232,"componentType":5126,"count":63936,"type":"VEC3","name":"accessorNormals"},{"bufferView":2,"componentType":5126,"count":63936,"type":"VEC2","name":"accessorUVs"},{"bufferView":0,"byteOffset":127872,"componentType":5123,"count":9216,"type":"SCALAR","name":"accessorIndices"},{"bufferView":1,"byteOffset":1534464,"componentType":5126,"count":9216,"max":[72.02736,8.2601,72.02736],"min":[-72.02736,-17.8056564,-72.02736],"type":"VEC3","name":"accessorPositions"},{"bufferView":1,"byteOffset":1645056,"componentType":5126,"count":9216,"type":"VEC3","name":"accessorNormals"},{"bufferView":2,"byteOffset":511488,"componentType":5126,"count":9216,"type":"VEC2","name":"accessorUVs"},{"bufferView":0,"byteOffset":146304,"componentType":5123,"count":6912,"type":"SCALAR","name":"accessorIndices"},{"bufferView":1,"byteOffset":1755648,"componentType":5126,"count":6912,"max":[72.02736,17.89306,72.02736],"min":[-72.02736,-8.176084,-72.02736],"type":"VEC3","name":"accessorPositions"},{"bufferView":1,"byteOffset":1838592,"componentType":5126,"count":6912,"type":"VEC3","name":"accessorNormals"},{"bufferView":2,"byteOffset":585216,"componentType":5126,"count":6912,"type":"VEC2","name":"accessorUVs"},{"bufferView":0,"byteOffset":160128,"componentType":5123,"count":5616,"type":"SCALAR","name":"accessorIndices"},{"bufferView":1,"byteOffset":1921536,"componentType":5126,"count":5616,"max":[81.40561,0.0,81.40561],"min":[-81.40561,-24.0,-81.40561],"type":"VEC3","name":"accessorPositions"},{"bufferView":1,"byteOffset":1988928,"componentType":5126,"count":5616,"type":"VEC3","name":"accessorNormals"},{"bufferView":2,"byteOffset":640512,"componentType":5126,"count":5616,"type":"VEC2","name":"accessorUVs"},{"bufferView":0,"byteOffset":171360,"componentType":5123,"count":5616,"type":"SCALAR","name":"accessorIndices"},{"bufferView":1,"byteOffset":2056320,"componentType":5126,"count":5616,"max":[81.13939,24.0,81.13939],"min":[-81.13939,0.0,-81.13939],"type":"VEC3","name":"accessorPositions"},{"bufferView":1,"byteOffset":2123712,"componentType":5126,"count":5616,"type":"VEC3","name":"accessorNormals"},{"bufferView":2,"byteOffset":685440,"componentType":5126,"count":5616,"type":"VEC2","name":"accessorUVs"},{"bufferView":0,"byteOffset":182592,"componentType":5123,"count":4176,"type":"SCALAR","name":"accessorIndices"},{"bufferView":1,"byteOffset":2191104,"componentType":5126,"count":4176,"max":[85.0,0.0,85.0],"min":[-85.0,-12.0,-85.0],"type":"VEC3","name":"accessorPositions"},{"bufferView":1,"byteOffset":2241216,"componentType":5126,"count":4176,"type":"VEC3","name":"accessorNormals"},{"bufferView":2,"byteOffset":730368,"componentType":5126,"count":4176,"type":"VEC2","name":"accessorUVs"},{"bufferView":0,"byteOffset":190944,"componentType":5123,"count":5808,"type":"SCALAR","name":"accessorIndices"},{"bufferView":1,"byteOffset":2291328,"componentType":5126,"count":5808,"max":[82.0,162.0,82.0],"min":[-82.0,0.03675294,-82.0],"type":"VEC3","name":"accessorPositions"},{"bufferView":1,"byteOffset":2361024,"componentType":5126,"count":5808,"type":"VEC3","name":"accessorNormals"},{"bufferView":2,"byteOffset":763776,"componentType":5126,"count":5808,"type":"VEC2","name":"accessorUVs"},{"bufferView":0,"byteOffset":202560,"componentType":5123,"count":1392,"type":"SCALAR","name":"accessorIndices"},{"bufferView":1,"byteOffset":2430720,"componentType":5126,"count":1392,"max":[40.0,8.0,1.22271979E-06],"min":[-40.0,-8.0,-1.00000119],"type":"VEC3","name":"accessorPositions"},{"bufferView":1,"byteOffset":2447424,"componentType":5126,"count":1392,"type":"VEC3","name":"accessorNormals"},{"bufferView":2,"byteOffset":810240,"componentType":5126,"count":1392,"type":"VEC2","name":"accessorUVs"},{"bufferView":0,"byteOffset":205344,"componentType":5123,"count":8640,"type":"SCALAR","name":"accessorIndices"},{"bufferView":1,"byteOffset":2464128,"componentType":5126,"count":8640,"max":[45.5688553,41.6308136,56.3077469],"min":[-60.50994,-41.6301041,-56.3083229],"type":"VEC3","name":"accessorPositions"},{"bufferView":1,"byteOffset":2567808,"componentType":5126,"count":8640,"type":"VEC3","name":"accessorNormals"},{"bufferView":2,"byteOffset":821376,"componentType":5126,"count":8640,"type":"VEC2","name":"accessorUVs"}],"bufferViews":[{"buffer":0,"byteLength":222624,"name":"bufferViewScalar"},{"buffer":0,"byteOffset":222624,"byteLength":2671488,"byteStride":12,"name":"bufferViewFloatVec3"},{"buffer":0,"byteOffset":2894112,"byteLength":890496,"byteStride":8,"name":"bufferViewFloatVec2"}],"buffers":[{"uri":"gltftest.bin","byteLength":3784608}],"materials":[{"pbrMetallicRoughness":{"baseColorFactor":[1.0,1.0,1.0,1.0],"metallicFactor":1.0,"roughnessFactor":0.200557277},"emissiveFactor":[0.0,0.0,0.0],"name":"PBR metal"},{"pbrMetallicRoughness":{"baseColorFactor":[0.0,0.0,0.0,0.0299999714],"metallicFactor":0.05,"roughnessFactor":0.2},"emissiveFactor":[0.0,0.0,0.0],"alphaMode":"BLEND","name":"PBR glass"},{"pbrMetallicRoughness":{"baseColorFactor":[1.0,1.0,1.0,1.0],"baseColorTexture":{"index":0},"metallicFactor":0.4,"roughnessFactor":0.5},"emissiveFactor":[0.0,0.0,0.0],"name":"PBR sign"},{"pbrMetallicRoughness":{"baseColorFactor":[0.0,0.065882355,0.7,0.0],"metallicFactor":0.0,"roughnessFactor":0.599999964},"emissiveFactor":[0.0,0.0,0.0],"alphaMode":"BLEND","name":"PBR torus"}],"textures":[{"sampler":0,"source":0,"name":"PBR_sign_baseColor.png"}],"images":[{"uri":"PBR_sign_baseColor.png"}],"samplers":[{"magFilter":9729,"minFilter":9987,"wrapS":10497,"wrapT":10497}]}