{
  "accessors": [
    {
      "bufferView": 2,
      "componentType": 5126,
      "count": 61785,
      "max": [
        2.0964689254760742,
        2.5329060554504395,
        5.3003978729248047
      ],
      "min": [
        -1.5312509536743164,
        -0.9861990213394165,
        -0.10235399752855301
      ],
      "type": "VEC3"
    },
    {
      "bufferView": 2,
      "byteOffset": 741420,
      "componentType": 5126,
      "count": 61785,
      "max": [
        0.99984347820281982,
        0.9996647834777832,
        1
      ],
      "min": [
        -0.9998059868812561,
        -0.99988722801208496,
        -0.9999922513961792
      ],
      "type": "VEC3"
    },
    {
      "bufferView": 1,
      "componentType": 5126,
      "count": 61785,
      "max": [
        0.99654000997543335,
        0.99654000997543335
      ],
      "min": [
        0.0034600000362843275,
        0.0034600000362843275
      ],
      "type": "VEC2"
    },
    {
      "bufferView": 3,
      "componentType": 5126,
      "count": 61785,
      "max": [
        0.9999651312828064,
        0.99990785121917725,
        0.9999956488609314,
        1
      ],
      "min": [
        -0.99998575448989868,
        -0.99990111589431763,
        -0.99998283386230469,
        -1
      ],
      "type": "VEC4"
    },
    {
      "bufferView": 0,
      "componentType": 5125,
      "count": 61785,
      "max": [
        61784
      ],
      "min": [
        0
      ],
      "type": "SCALAR"
    }
  ],
  "asset": {
    "generator": "Sketchfab (OSG glTF plugin)",
    "version": "2.0"
  },
  "bufferViews": [
    {
      "buffer": 0,
      "byteLength": 247140,
      "byteOffset": 0,
      "name": "ScalarBufferView",
      "target": 34963
    },
    {
      "buffer": 0,
      "byteLength": 494280,
      "byteOffset": 247140,
      "byteStride": 8,
      "name": "Vec3BufferView",
      "target": 34962
    },
    {
      "buffer": 0,
      "byteLength": 1482840,
      "byteOffset": 741420,
      "byteStride": 12,
      "name": "Vec4BufferView",
      "target": 34962
    },
    {
      "buffer": 0,
      "byteLength": 988560,
      "byteOffset": 2224260,
      "byteStride": 16,
      "name": "MatrixBufferView",
      "target": 34962
    }
  ],
  "buffers": [
    {
      "byteLength": 3212820,
      "uri": "rose.bin"
    }
  ],
  "images": [
    {
      "uri": "rose_rough.png"
    },
    {
      "uri": "rose_normal.png"
    },
    {
      "uri": "rose_base.png"
    }
  ],
  "materials": [
    {
      "doubleSided": true,
      "emissiveFactor": [
        0,
        0,
        0
      ],
      "name": "Scene - Root",
      "normalTexture": {
        "index": 1,
        "scale": 0.86147103660000002,
        "texCoord": 0
      },
      "occlusionTexture": {
        "index": 0,
        "strength": 0.65415396339999998,
        "texCoord": 0
      },
      "pbrMetallicRoughness": {
        "baseColorFactor": [
          1,
          1,
          1,
          1
        ],
        "baseColorTexture": {
          "index": 2,
          "texCoord": 0
        },
        "metallicFactor": 0.80659298779999999,
        "metallicRoughnessTexture": {
          "index": 0,
          "texCoord": 0
        },
        "roughnessFactor": 0.40415396339999998
      }
    }
  ],
  "meshes": [
    {
      "name": "Group51777",
      "primitives": [
        {
          "attributes": {
            "NORMAL": 1,
            "POSITION": 0,
            "TANGENT": 3,
            "TEXCOORD_0": 2
          },
          "indices": 4,
          "material": 0,
          "mode": 4
        }
      ]
    }
  ],
  "nodes": [
    {
      "children": [
        1
      ],
      "name": "RootNode (gltf orientation matrix)",
      "rotation": [
        -0.70710678118654746,
        -0,
        -0,
        0.70710678118654757
      ]
    },
    {
      "children": [
        2
      ],
      "name": "RootNode (model correction matrix)"
    },
    {
      "children": [
        3
      ],
      "name": "Rose.Obj.cleaner.materialmerger.gles"
    },
    {
      "mesh": 0,
      "name": "Group51777"
    }
  ],
  "samplers": [
    {
      "magFilter": 9729,
      "minFilter": 9987,
      "wrapS": 10497,
      "wrapT": 10497
    }
  ],
  "scene": 0,
  "scenes": [
    {
      "name": "OSG_Scene",
      "nodes": [
        0
      ]
    }
  ],
  "textures": [
    {
      "sampler": 0,
      "source": 0
    },
    {
      "sampler": 0,
      "source": 1
    },
    {
      "sampler": 0,
      "source": 2
    }
  ]
}

