{
  "accessors": [
    {
      "bufferView": 2,
      "componentType": 5126,
      "count": 3203,
      "max": [
        0.24465300142765045,
        1.6927239894866943,
        0.76752501726150513
      ],
      "min": [
        -0.24465900659561157,
        -4.7515130043029785,
        -0.59287601709365845
      ],
      "type": "VEC3"
    },
    {
      "bufferView": 2,
      "byteOffset": 38436,
      "componentType": 5126,
      "count": 3203,
      "max": [
        1,
        0.96491634845733643,
        0.99996298551559448
      ],
      "min": [
        -1,
        -0.89627945423126221,
        -0.94707810878753662
      ],
      "type": "VEC3"
    },
    {
      "bufferView": 3,
      "componentType": 5126,
      "count": 3203,
      "max": [
        0.98911720514297485,
        1,
        1,
        1
      ],
      "min": [
        -0.99673688411712646,
        -1,
        -1,
        -1
      ],
      "type": "VEC4"
    },
    {
      "bufferView": 1,
      "componentType": 5126,
      "count": 3203,
      "max": [
        0.98853397369384766,
        0.86877197027206421
      ],
      "min": [
        0.004999999888241291,
        0.004999999888241291
      ],
      "type": "VEC2"
    },
    {
      "bufferView": 0,
      "componentType": 5125,
      "count": 10290,
      "max": [
        3202
      ],
      "min": [
        0
      ],
      "type": "SCALAR"
    },
    {
      "bufferView": 2,
      "byteOffset": 76872,
      "componentType": 5126,
      "count": 2816,
      "max": [
        0.24465300142765045,
        -1.9116489887237549,
        0.65003800392150879
      ],
      "min": [
        -0.24465900659561157,
        -4.8085470199584961,
        -0.39249899983406067
      ],
      "type": "VEC3"
    },
    {
      "bufferView": 2,
      "byteOffset": 110664,
      "componentType": 5126,
      "count": 2816,
      "max": [
        0.84684354066848755,
        0.97115635871887207,
        1
      ],
      "min": [
        -0.85373818874359131,
        -1,
        -1
      ],
      "type": "VEC3"
    },
    {
      "bufferView": 3,
      "byteOffset": 51248,
      "componentType": 5126,
      "count": 2816,
      "max": [
        1,
        1,
        0.717853844165802,
        1
      ],
      "min": [
        -0.99955183267593384,
        -1,
        -0.85359513759613037,
        -1
      ],
      "type": "VEC4"
    },
    {
      "bufferView": 1,
      "byteOffset": 25624,
      "componentType": 5126,
      "count": 2816,
      "max": [
        0.99500000476837158,
        0.73715299367904663
      ],
      "min": [
        0.004999999888241291,
        0.004999999888241291
      ],
      "type": "VEC2"
    },
    {
      "bufferView": 0,
      "byteOffset": 41160,
      "componentType": 5125,
      "count": 13668,
      "max": [
        2815
      ],
      "min": [
        0
      ],
      "type": "SCALAR"
    }
  ],
  "asset": {
    "generator": "Sketchfab (OSG glTF plugin)",
    "version": "2.0"
  },
  "bufferViews": [
    {
      "buffer": 0,
      "byteLength": 95832,
      "byteOffset": 0,
      "name": "floatBufferViews",
      "target": 34963
    },
    {
      "buffer": 0,
      "byteLength": 48152,
      "byteOffset": 95832,
      "byteStride": 8,
      "name": "floatBufferViews",
      "target": 34962
    },
    {
      "buffer": 0,
      "byteLength": 144456,
      "byteOffset": 143984,
      "byteStride": 12,
      "name": "floatBufferViews",
      "target": 34962
    },
    {
      "buffer": 0,
      "byteLength": 96304,
      "byteOffset": 288440,
      "byteStride": 16,
      "name": "floatBufferViews",
      "target": 34962
    }
  ],
  "buffers": [
    {
      "byteLength": 384744,
      "uri": "scene.bin"
    }
  ],
  "images": [
    {
      "uri": "textures/Scene%20-%20Root_metallicRoughness.png"
    },
    {
      "uri": "textures/Scene%20-%20Root_baseColor.png"
    }
  ],
  "materials": [
    {
      "doubleSided": true,
      "emissiveFactor": [
        0,
        0,
        0
      ],
      "name": "Scene - Root",
      "occlusionTexture": {
        "index": 0,
        "strength": 1,
        "texCoord": 0
      },
      "pbrMetallicRoughness": {
        "baseColorFactor": [
          0.95293445119999998,
          0.95293445119999998,
          0.95293445119999998,
          1
        ],
        "baseColorTexture": {
          "index": 1,
          "texCoord": 0
        },
        "metallicFactor": 0.46512957319999998,
        "metallicRoughnessTexture": {
          "index": 0,
          "texCoord": 0
        },
        "roughnessFactor": 1
      }
    }
  ],
  "meshes": [
    {
      "primitives": [
        {
          "attributes": {
            "NORMAL": 1,
            "POSITION": 0,
            "TANGENT": 2,
            "TEXCOORD_0": 3
          },
          "indices": 4,
          "material": 0,
          "mode": 4
        }
      ]
    },
    {
      "primitives": [
        {
          "attributes": {
            "NORMAL": 6,
            "POSITION": 5,
            "TANGENT": 7,
            "TEXCOORD_0": 8
          },
          "indices": 9,
          "material": 0,
          "mode": 4
        }
      ]
    }
  ],
  "nodes": [
    {
      "children": [
        1
      ],
      "name": "RootNode (gltf orientation matrix)",
      "rotation": [
        -0.70710678118654746,
        -0,
        -0,
        0.70710678118654757
      ]
    },
    {
      "children": [
        2
      ],
      "name": "RootNode (model correction matrix)"
    },
    {
      "children": [
        5
      ],
      "name": "Machete.Obj.cleaner.materialmerger.gles"
    },
    {
      "mesh": 0,
      "name": ""
    },
    {
      "mesh": 1,
      "name": ""
    },
    {
      "children": [
        3,
        4
      ],
      "name": "Geode"
    }
  ],
  "samplers": [
    {
      "magFilter": 9729,
      "minFilter": 9987,
      "wrapS": 10497,
      "wrapT": 10497
    }
  ],
  "scene": 0,
  "scenes": [
    {
      "name": "OSG_Scene",
      "nodes": [
        0
      ]
    }
  ],
  "textures": [
    {
      "sampler": 0,
      "source": 0
    },
    {
      "sampler": 0,
      "source": 1
    }
  ]
}

